 <svg version="1.0" xmlns="http://www.w3.org/2000/svg"  width="300.000000pt" height="257.000000pt" viewBox="0 0 300.000000 257.000000"  preserveAspectRatio="xMidYMid meet">  <g transform="translate(0.000000,257.000000) scale(0.100000,-0.100000)" fill="#00ff2e" stroke="none"> <path d="M1360 2017 c-120 -89 -144 -112 -212 -204 l-76 -103 34 0 34 0 0 -166 c0 -153 1 -165 18 -160 9 3 35 8 57 11 94 14 85 -3 85 165 l0 150 200 0 200 0 0 -150 c0 -82 2 -150 4 -150 2 0 40 -7 83 -15 43 -8 79 -15 81 -15 1 0 2 51 2 113 0 76 -3 107 -10 97 -6 -9 -10 -10 -10 -3 0 6 5 15 10 18 6 3 10 28 10 55 0 46 1 49 29 52 l29 3 -75 102 c-68 93 -88 111 -213 203 -76 55 -139 100 -141 99 -2 0 -65 -46 -139 -102z m239 0 c31 -23 61 -45 66 -49 6 -4 30 -22 54 -40 38 -28 127 -134 147 -176 4 -7 -1 -21 -9 -30 -14 -15 -23 -111 -16 -182 0 -8 0 -39 -2 -67 l-2 -53 -39 0 c-21 0 -38 4 -38 9 0 5 -7 8 -16 7 -14 -1 -16 16 -14 136 1 169 5 165 -150 166 -82 1 -107 4 -116 17 -12 16 -104 22 -104 7 0 -5 -18 -16 -40 -25 l-40 -15 0 -60 c0 -68 -7 -95 -23 -85 -6 3 -7 1 -3 -6 4 -6 12 -9 17 -6 5 4 9 -3 9 -15 0 -14 -4 -19 -12 -14 -10 6 -10 4 -2 -7 6 -8 10 -32 9 -53 -2 -45 -16 -54 -80 -55 -38 0 -39 0 -20 16 13 10 15 14 4 10 -14 -5 -15 10 -12 136 3 78 1 139 -2 135 -11 -11 -37 20 -29 34 16 26 90 124 109 145 11 12 44 38 73 58 45 31 56 34 70 24 14 -11 15 -11 5 1 -13 14 -19 39 -7 27 3 -3 17 4 30 16 14 12 42 31 62 43 32 18 39 19 51 7 8 -8 39 -33 70 -56z m-151 -279 c8 -10 -2 -13 -43 -14 -43 0 -52 3 -43 13 13 17 72 17 86 1z"/> <path d="M1384 1938 l-19 -23 22 19 c30 25 56 7 46 -33 -12 -47 -6 -104 14 -115 38 -23 143 -10 127 16 -3 4 -1 8 4 8 14 0 7 87 -8 105 -7 9 -29 15 -54 15 -23 0 -48 6 -55 13 -10 10 -11 8 -5 -8 7 -19 6 -18 -18 3 -13 12 -27 22 -30 22 -3 0 -13 -10 -24 -22z m170 -87 l1 -51 -52 0 -53 0 0 53 0 52 51 -1 51 -2 2 -51z"/> <path d="M1797 1560 c3 -11 9 -17 15 -14 5 3 4 12 -3 20 -16 19 -18 18 -12 -6z"/> <path d="M875 1693 c-44 -77 -50 -95 -50 -145 0 -53 3 -61 38 -95 l37 -38 0 45 c0 25 3 56 6 70 5 24 5 24 -10 6 -9 -11 -16 -29 -16 -40 -1 -20 -1 -20 -15 -3 -23 32 -13 105 24 170 18 31 37 57 43 57 5 0 8 -7 5 -14 -4 -9 -1 -13 7 -10 14 5 57 -86 60 -126 1 -14 5 -31 9 -37 10 -16 -5 -17 -19 -3 -8 8 -15 5 -25 -7 -13 -16 -12 -17 3 -4 31 23 34 -14 5 -49 -29 -34 -35 -31 -32 23 1 20 -4 42 -10 47 -14 11 -25 -68 -25 -171 0 -48 3 -57 15 -53 10 4 15 20 15 47 0 34 6 45 40 74 49 42 66 92 51 148 -9 32 -95 195 -104 195 -1 0 -24 -39 -52 -87z"/> <path d="M2026 1704 c-78 -133 -82 -196 -16 -259 27 -26 30 -27 30 -8 0 11 3 42 7 68 7 55 -11 57 -22 3 -7 -30 -8 -31 -21 -13 -18 24 -18 67 0 110 8 19 12 35 8 35 -4 0 -2 4 4 8 5 4 20 24 33 45 l23 38 21 -33 c39 -65 56 -112 45 -125 -6 -7 -15 -10 -21 -6 -6 3 -7 1 -3 -5 4 -6 13 -9 21 -5 36 13 3 -87 -34 -107 -17 -9 -19 -5 -23 31 -2 22 1 43 6 46 5 4 6 0 1 -8 -8 -12 -6 -12 8 -1 9 8 22 10 28 6 8 -5 9 -3 5 5 -5 7 -15 10 -23 7 -10 -4 -13 -2 -10 8 3 8 0 20 -8 26 -11 9 -12 7 -8 -11 4 -15 3 -20 -5 -15 -9 5 -12 -22 -12 -104 0 -85 3 -111 13 -108 6 3 13 20 15 39 2 23 15 46 42 74 68 70 66 125 -9 254 l-49 84 -46 -79z"/> <path d="M1428 1607 l73 -73 69 70 c39 38 70 71 70 73 0 2 -36 3 -80 3 -68 0 -81 -3 -90 -19 -15 -29 -13 -32 16 -21 14 6 42 10 62 10 l36 0 -34 -35 c-38 -39 -46 -41 -74 -20 -14 11 -20 26 -19 53 l1 37 -14 -28 c-8 -15 -20 -27 -26 -27 -6 0 -4 8 5 18 24 26 22 29 -25 30 l-43 2 73 -73z"/> <path d="M210 1663 c0 -6 8 -17 18 -24 16 -13 16 -13 2 6 -8 11 -16 22 -17 24 -2 2 -3 0 -3 -6z"/> <path d="M2460 1663 c0 -6 8 -17 18 -24 16 -13 16 -13 2 6 -8 11 -16 22 -17 24 -2 2 -3 0 -3 -6z"/> <path d="M1334 1634 c3 -9 6 -63 6 -120 0 -125 8 -130 86 -54 l51 49 -69 70 c-71 73 -85 83 -74 55z m91 -144 c-10 -11 -23 -17 -29 -13 -6 3 -8 3 -4 -2 8 -8 -9 -35 -21 -35 -6 0 -8 99 -2 134 0 5 17 -7 38 -27 35 -36 36 -37 18 -57z"/> <path d="M1595 1580 l-69 -70 49 -50 c31 -31 58 -50 72 -50 23 0 23 2 23 120 0 66 -1 120 -3 120 -1 0 -34 -31 -72 -70z m46 -70 c0 -34 -2 -64 -5 -68 -7 -6 -65 57 -66 71 0 10 61 69 67 64 2 -3 4 -33 4 -67z"/> <path d="M976 1568 c3 -5 10 -6 15 -3 13 9 11 12 -6 12 -8 0 -12 -4 -9 -9z"/> <path d="M1470 1455 l-34 -35 70 0 69 0 -24 19 c-14 10 -30 26 -36 35 -10 13 -16 11 -45 -19z"/> <path d="M1330 1383 c-78 -8 -253 -45 -327 -68 -63 -21 -217 -81 -231 -91 -2 -1 -1 -16 3 -33 6 -29 8 -30 28 -16 30 21 63 19 88 -6 17 -17 20 -29 16 -63 -5 -37 -4 -39 8 -22 17 22 10 74 -14 98 -20 22 -71 31 -88 16 -10 -8 -12 -8 -8 3 5 13 113 61 126 56 3 -1 14 5 24 13 9 8 29 16 44 17 14 2 37 8 51 13 14 6 48 15 75 20 28 6 61 13 75 16 14 3 50 8 80 10 30 3 62 8 70 11 48 16 418 -2 438 -21 4 -4 -34 -7 -83 -6 -72 2 -89 -1 -87 -11 2 -8 0 -11 -4 -7 -4 4 -13 3 -21 -3 -10 -9 -13 -8 -13 1 0 9 -4 9 -13 2 -7 -6 -36 -12 -65 -14 -28 -2 -52 -7 -52 -11 0 -5 -4 -6 -9 -2 -5 3 -12 1 -16 -5 -3 -5 -15 -10 -27 -10 -33 0 -162 -42 -182 -59 -10 -9 -21 -15 -25 -13 -8 4 -145 -60 -149 -70 -2 -5 -9 -8 -16 -8 -6 0 -45 -20 -85 -45 -41 -25 -76 -43 -80 -40 -3 4 2 11 12 16 9 6 17 17 17 26 0 14 -2 14 -19 -1 -11 -10 -26 -16 -33 -14 -8 3 -5 9 10 17 24 13 30 46 9 54 -19 7 -41 -8 -32 -23 6 -9 9 -9 16 1 4 7 11 10 15 6 12 -11 -13 -30 -30 -24 -22 8 -20 44 2 56 22 12 50 -3 62 -32 7 -18 9 -18 9 -4 1 22 -34 57 -56 57 -32 -1 -56 -26 -48 -52 7 -20 53 -118 60 -126 2 -2 38 20 81 48 216 141 483 232 768 261 110 11 298 7 344 -7 14 -5 15 -4 2 5 -25 16 -214 61 -323 76 -92 13 -307 18 -397 8z"/> <path d="M1635 1245 c-251 -36 -475 -118 -673 -244 l-82 -53 29 -36 c16 -21 54 -61 84 -91 l55 -53 83 72 c163 141 358 253 568 324 105 37 272 75 333 77 31 1 31 2 8 9 -39 13 -306 9 -405 -5z m155 -18 c-8 -7 -40 -19 -70 -27 -30 -7 -62 -17 -70 -21 -14 -7 -47 -21 -147 -64 -24 -10 -43 -23 -43 -28 0 -6 -3 -8 -6 -4 -3 3 -20 -2 -38 -12 -25 -14 -34 -16 -43 -6 -7 7 -9 16 -5 21 4 4 1 4 -5 0 -7 -4 -13 -2 -13 4 0 6 8 10 18 8 9 -2 16 -11 14 -18 -3 -11 1 -10 16 3 10 9 24 17 31 17 7 0 10 4 7 9 -7 10 -31 9 -42 -2 -4 -3 -11 -4 -16 -1 -15 9 12 33 30 27 14 -5 15 -3 5 7 -10 10 -23 3 -66 -36 -35 -31 -51 -53 -46 -60 5 -6 5 -15 1 -19 -4 -5 -2 -5 5 -1 7 4 9 14 6 24 -6 15 -4 15 9 4 14 -11 16 -10 11 7 -7 26 8 27 24 2 10 -17 9 -20 -13 -25 -13 -4 -24 -11 -24 -16 0 -17 -28 -11 -33 8 -3 10 -5 6 -6 -11 -1 -30 -30 -60 -105 -108 -23 -14 -61 -45 -85 -69 l-44 -42 -63 63 c-35 35 -63 70 -64 77 0 7 5 10 10 7 6 -3 10 -2 10 3 0 5 12 17 26 27 20 13 28 14 40 4 8 -6 17 -9 21 -5 3 3 2 6 -4 6 -6 0 -14 8 -17 17 -4 10 -4 14 0 11 3 -4 52 17 108 46 99 53 283 122 294 112 3 -3 11 -1 19 5 10 9 13 8 13 0 0 -7 5 -9 10 -6 6 4 8 10 5 15 -6 9 12 23 33 26 10 2 10 -1 1 -12 -6 -7 -16 -11 -22 -7 -6 3 -7 1 -3 -6 9 -14 -12 -43 -25 -35 -5 3 -9 -2 -9 -10 0 -9 2 -16 5 -16 8 0 45 39 45 49 0 17 88 41 200 54 63 8 117 15 120 16 2 0 -2 -5 -10 -12z"/> <path d="M1994 1190 c-340 -60 -612 -190 -856 -407 l-48 -42 45 -27 c56 -32 169 -72 227 -80 l43 -5 64 81 c148 185 400 384 591 465 93 39 83 41 -66 15z m16 -20 c0 -13 -11 -13 -30 0 -12 8 -11 10 8 10 12 0 22 -4 22 -10z m-79 -17 c-5 -10 -13 -27 -17 -38 -7 -19 -8 -19 -12 3 -4 23 13 52 29 52 5 0 5 -8 0 -17z m39 -7 c0 -2 -7 -6 -15 -10 -8 -3 -15 -1 -15 4 0 6 7 10 15 10 8 0 15 -2 15 -4z m-100 -28 c-1 -7 -44 -44 -98 -83 -99 -72 -265 -229 -318 -300 -59 -80 -63 -83 -97 -75 -65 16 -195 67 -216 86 -5 4 65 64 110 94 21 14 52 38 69 53 16 15 30 25 30 22 0 -2 15 6 33 18 18 12 55 33 82 47 28 14 52 29 53 33 2 4 11 2 20 -5 12 -10 14 -10 8 0 -4 7 -2 12 7 12 8 0 27 10 42 22 16 12 35 23 44 24 9 1 54 16 101 33 92 33 130 38 130 19z"/> <path d="M1397 869 c7 -7 15 -10 18 -7 3 3 -2 9 -12 12 -14 6 -15 5 -6 -5z"/> <path d="M1383 847 c0 -8 6 -14 14 -14 9 0 10 4 2 14 -6 7 -12 13 -14 13 -1 0 -2 -6 -2 -13z"/> <path d="M2132 1158 c-68 -30 -96 -48 -103 -65 -4 -12 -11 -23 -13 -23 -3 0 -3 7 1 16 9 23 -60 -13 -177 -94 -93 -65 -313 -272 -360 -341 l-24 -34 95 6 c261 16 492 165 614 398 37 70 77 180 66 178 -3 0 -48 -19 -99 -41z m53 -30 c-4 -13 -18 -42 -30 -66 -13 -23 -19 -39 -12 -35 6 4 1 -6 -11 -22 -13 -17 -33 -46 -46 -65 -26 -38 -129 -140 -142 -140 -4 0 -22 -14 -39 -30 -17 -17 -41 -32 -53 -35 -12 -2 -32 -11 -44 -20 -19 -13 -103 -42 -103 -35 0 1 -13 -4 -30 -10 -38 -15 -155 -29 -155 -19 0 4 7 14 15 23 8 8 15 20 15 27 0 7 8 5 22 -7 16 -14 19 -14 10 -2 -11 14 -9 23 13 57 14 23 28 41 31 41 3 0 2 -6 -2 -12 -4 -7 -4 -10 0 -6 4 3 6 9 4 11 -5 8 44 57 57 57 6 0 21 9 32 20 65 60 135 110 146 104 7 -4 9 -3 4 1 -11 13 48 49 246 152 74 39 80 40 72 11z"/> <path d="M1900 925 c13 -14 26 -25 28 -25 3 0 -5 11 -18 25 -13 14 -26 25 -28 25 -3 0 5 -11 18 -25z"/> <path d="M1960 866 c7 -7 13 -7 20 0 6 6 3 10 -10 10 -13 0 -16 -4 -10 -10z"/> <path d="M0 160 c0 -5 9 -10 21 -10 16 0 19 -4 14 -17 -19 -45 -17 -72 8 -97 31 -31 51 -32 99 -7 21 10 40 16 43 12 4 -3 129 -7 278 -7 150 -1 314 -3 366 -4 83 -2 95 0 105 16 15 26 14 36 -2 56 -12 14 -35 17 -166 16 -142 -1 -176 3 -176 20 0 4 542 7 1205 6 988 0 1205 2 1205 13 0 11 -269 13 -1500 13 -993 0 -1500 -3 -1500 -10z m199 -41 c-21 -16 -24 -16 -35 -1 -11 14 -9 18 9 23 38 10 52 -2 26 -22z m259 22 c34 0 62 -4 62 -8 0 -12 -49 -32 -55 -23 -3 5 -49 8 -104 8 -92 -1 -121 4 -121 20 0 4 35 6 78 6 42 -1 105 -2 140 -3z m104 -13 c-6 -6 -15 -8 -19 -4 -4 4 -1 11 7 16 19 12 27 3 12 -12z m-419 -19 c16 -22 17 -30 8 -48 -7 -12 -16 -19 -21 -16 -5 3 -11 1 -15 -5 -11 -17 -54 -11 -65 9 -16 31 -12 59 13 76 29 21 56 16 80 -16z m97 -8 c0 -30 -11 -51 -26 -51 -24 0 -28 29 -8 50 24 24 34 25 34 1z m310 -1 c10 -6 11 -10 3 -10 -7 0 -13 -8 -13 -17 0 -15 2 -16 10 -3 8 13 10 12 10 -3 0 -30 -35 -16 -38 16 -4 29 3 33 28 17z m-288 -25 c-2 -14 -6 -25 -8 -25 -2 0 -4 11 -4 25 0 14 4 25 9 25 4 0 6 -11 3 -25z m58 16 c0 -6 -5 -13 -12 -17 -7 -4 -8 -3 -4 4 4 7 5 12 2 12 -17 0 -13 -22 6 -29 23 -10 23 -10 1 -10 -25 -1 -37 13 -29 34 6 16 36 21 36 6z m60 -16 c0 -18 -5 -25 -20 -25 -15 0 -20 7 -20 25 0 18 5 25 20 25 15 0 20 -7 20 -25z m79 -2 l-1 -28 -8 25 c-8 24 -8 24 -9 3 -1 -13 -5 -23 -11 -23 -5 0 -10 10 -11 23 -1 21 -1 21 -9 -3 l-8 -25 -1 28 c-1 24 3 27 29 27 26 0 30 -3 29 -27z m42 5 c-4 -12 -13 -24 -19 -26 -7 -2 -7 5 1 22 15 32 30 35 18 4z m89 -3 c0 -14 -4 -25 -9 -25 -5 0 -8 11 -8 25 0 14 3 25 8 25 5 0 9 -11 9 -25z m78 -2 c2 -13 -1 -23 -7 -23 -6 0 -12 10 -12 23 -2 20 -2 20 -7 -3 l-5 -25 -7 25 -7 25 -11 -25 c-10 -23 -11 -23 -11 -4 -1 28 8 36 39 32 17 -2 26 -10 28 -25z m52 18 c0 -15 -18 -23 -23 -11 -3 6 -4 5 -3 -2 4 -23 44 -21 51 1 7 23 30 28 41 9 5 -8 2 -9 -9 -5 -11 4 -17 1 -17 -8 0 -22 17 -18 34 6 17 25 46 19 46 -10 0 -17 -8 -19 -75 -19 -75 0 -92 6 -81 33 6 16 36 21 36 6z m200 -16 c0 -14 -5 -25 -11 -25 -5 0 -7 4 -4 10 3 6 3 16 -1 22 -6 9 -10 5 -15 -12 -7 -24 -7 -24 -8 -2 -1 12 -5 22 -10 22 -5 0 -12 -10 -14 -22 -4 -20 -4 -19 -6 5 -1 25 2 27 34 27 31 0 35 -3 35 -25z"/> <path d="M72 108 c-28 -28 3 -83 33 -58 21 18 19 40 -5 40 -11 0 -20 -5 -20 -11 0 -6 7 -9 15 -5 8 3 15 1 15 -4 0 -6 -9 -10 -21 -10 -15 0 -20 5 -17 23 2 16 10 22 28 22 19 0 26 -6 31 -30 6 -28 7 -28 8 -4 2 42 -39 65 -67 37z"/> <path d="M200 75 c0 -8 5 -15 10 -15 6 0 10 7 10 15 0 8 -4 15 -10 15 -5 0 -10 -7 -10 -15z"/> <path d="M350 75 c0 -8 5 -15 10 -15 6 0 10 7 10 15 0 8 -4 15 -10 15 -5 0 -10 -7 -10 -15z"/> <path d="M810 76 c0 -9 5 -16 10 -16 6 0 10 4 10 9 0 6 -4 13 -10 16 -5 3 -10 -1 -10 -9z"/> <path d="M2271 107 c-17 -17 -13 -45 9 -57 11 -6 25 -8 30 -5 5 3 107 5 227 5 441 -2 412 -3 420 16 15 41 -8 44 -349 48 -227 3 -330 0 -337 -7z m47 -24 c-5 -26 -38 -29 -38 -4 0 15 6 21 21 21 14 0 19 -5 17 -17z m32 -3 c0 -11 -2 -20 -4 -20 -2 0 -6 9 -9 20 -3 11 -1 20 4 20 5 0 9 -9 9 -20z m50 5 c0 -5 5 -3 10 5 9 13 11 13 20 0 5 -8 10 -10 10 -4 0 8 22 12 61 13 52 0 60 -2 57 -17 -2 -12 -13 -17 -35 -18 -19 -1 -30 3 -26 9 4 6 1 7 -8 1 -17 -11 -99 -12 -92 -1 2 4 -3 7 -12 7 -9 0 -13 -4 -10 -10 3 -5 2 -10 -4 -10 -5 0 -9 9 -8 19 1 20 37 26 37 6z m206 4 c10 -17 -13 -36 -27 -22 -12 12 -4 33 11 33 5 0 12 -5 16 -11z m174 1 c41 1 89 1 105 2 49 0 55 -1 55 -17 0 -18 -30 -20 -31 -2 0 10 -2 10 -6 0 -2 -7 -13 -13 -24 -13 -10 0 -19 6 -19 13 0 8 -4 7 -10 -3 -9 -13 -11 -13 -20 0 -5 8 -10 10 -10 4 0 -12 -49 -12 -68 0 -7 4 -12 2 -12 -3 0 -6 -7 -11 -15 -11 -8 0 -15 6 -15 13 0 8 -3 9 -8 1 -10 -16 -45 -13 -60 5 -8 9 -11 11 -8 4 4 -6 2 -14 -4 -18 -5 -3 -10 3 -10 14 0 18 5 20 43 15 23 -2 76 -4 117 -4z"/> </g> </svg> 